<svg xmlns="http://www.w3.org/2000/svg" viewBox="0 0 186 64">
  <style>
    .a { fill: #000000; }
    @media (prefers-color-scheme: dark) {
      .a { fill: #ffffff; }
    }
  </style>

  <g>
    <path class="a" d="M27.5691,63.15775V61.642h3.87375L21.927,42.105l-1.60012.42137V61.642H24.2006v1.51575H.03246V61.642H4.66409V1.51575H-.30454V0H20.32685V40.84188l1.3475-.50525L40.62173,24.5895H32.706V23.07375H49.29536V24.5895H43.40061L33.37948,33.09487,47.94786,61.642h3.032v1.51575Z"/>
    <path class="a" d="M100.24225,63.15775h-19.2l-.92613-6.14737a11.01742,11.01742,0,0,1-4.00006,5.17881Q73.46349,63.99925,68.24224,64,55.18837,64,55.18961,49.93687V24.5895h-4.7155V23.07375H70.85287V51.95788q0,5.05273.71593,6.65262a2.81741,2.81741,0,0,0,2.86325,1.60012q2.14707,0,3.83132-2.61062a13.2933,13.2933,0,0,0,1.684-7.24225V24.5895H76.07412V23.07375H95.61063V61.642h4.63162Z"/>
    <path class="a" d="M130.05251,25.43175q-3.11687,0-5.47387,4.042a18.71858,18.71858,0,0,0-2.358,9.59975V61.642h5.97912v1.51575H101.92625V61.642h4.63163V24.5895h-4.63163V23.07375h20.29439v8.084a11.42519,11.42519,0,0,1,4.21075-6.61069,11.55435,11.55435,0,0,1,7.0735-2.31556,9.28145,9.28145,0,0,1,6.44244,2.23169,8.05557,8.05557,0,0,1,2.48381,6.31562,9.45536,9.45536,0,0,1-1.85225,6.27369q-1.85349,2.19049-5.68456,2.18975a6.46807,6.46807,0,0,1-5.64213-2.52675q-1.81156-2.526-.46281-6.98913h3.0315Q133.92452,25.43151,130.05251,25.43175Z"/>
    <path class="a" d="M141.50452,24.5895V23.07375h25.17913V24.5895H161.378l10.1055,27.9575,9.0945-27.9575h-5.64212V23.07375h11.36863V24.5895H182.599L170.136,63.15775h-9.59975L144.9574,24.5895Z"/>
  </g>
</svg>
